%TF.GenerationSoftware,KiCad,Pcbnew,9.0.2*%
%TF.CreationDate,2025-05-31T16:49:14-04:00*%
%TF.ProjectId,shinx,7368696e-782e-46b6-9963-61645f706362,rev?*%
%TF.SameCoordinates,Original*%
%TF.FileFunction,Copper,L2,Bot*%
%TF.FilePolarity,Positive*%
%FSLAX46Y46*%
G04 Gerber Fmt 4.6, Leading zero omitted, Abs format (unit mm)*
G04 Created by KiCad (PCBNEW 9.0.2) date 2025-05-31 16:49:14*
%MOMM*%
%LPD*%
G01*
G04 APERTURE LIST*
G04 Aperture macros list*
%AMRoundRect*
0 Rectangle with rounded corners*
0 $1 Rounding radius*
0 $2 $3 $4 $5 $6 $7 $8 $9 X,Y pos of 4 corners*
0 Add a 4 corners polygon primitive as box body*
4,1,4,$2,$3,$4,$5,$6,$7,$8,$9,$2,$3,0*
0 Add four circle primitives for the rounded corners*
1,1,$1+$1,$2,$3*
1,1,$1+$1,$4,$5*
1,1,$1+$1,$6,$7*
1,1,$1+$1,$8,$9*
0 Add four rect primitives between the rounded corners*
20,1,$1+$1,$2,$3,$4,$5,0*
20,1,$1+$1,$4,$5,$6,$7,0*
20,1,$1+$1,$6,$7,$8,$9,0*
20,1,$1+$1,$8,$9,$2,$3,0*%
%AMRotRect*
0 Rectangle, with rotation*
0 The origin of the aperture is its center*
0 $1 length*
0 $2 width*
0 $3 Rotation angle, in degrees counterclockwise*
0 Add horizontal line*
21,1,$1,$2,0,0,$3*%
G04 Aperture macros list end*
%TA.AperFunction,ComponentPad*%
%ADD10C,2.000000*%
%TD*%
%TA.AperFunction,ComponentPad*%
%ADD11RotRect,1.800000X1.800000X25.000000*%
%TD*%
%TA.AperFunction,ComponentPad*%
%ADD12C,1.800000*%
%TD*%
%TA.AperFunction,ComponentPad*%
%ADD13R,1.800000X1.800000*%
%TD*%
%TA.AperFunction,ComponentPad*%
%ADD14R,1.800000X1.100000*%
%TD*%
%TA.AperFunction,ComponentPad*%
%ADD15RoundRect,0.275000X0.625000X-0.275000X0.625000X0.275000X-0.625000X0.275000X-0.625000X-0.275000X0*%
%TD*%
%TA.AperFunction,ComponentPad*%
%ADD16C,1.600000*%
%TD*%
%TA.AperFunction,ComponentPad*%
%ADD17R,1.700000X1.700000*%
%TD*%
%TA.AperFunction,ComponentPad*%
%ADD18C,1.700000*%
%TD*%
%TA.AperFunction,SMDPad,CuDef*%
%ADD19R,1.270000X5.080000*%
%TD*%
%TA.AperFunction,SMDPad,CuDef*%
%ADD20C,17.800000*%
%TD*%
%TA.AperFunction,ComponentPad*%
%ADD21C,1.500000*%
%TD*%
%TA.AperFunction,ViaPad*%
%ADD22C,5.500000*%
%TD*%
%TA.AperFunction,Conductor*%
%ADD23C,0.200000*%
%TD*%
G04 APERTURE END LIST*
D10*
%TO.P,SW1,1,1*%
%TO.N,Net-(BT1-+)*%
X157750000Y-112250000D03*
X164250000Y-112250000D03*
%TO.P,SW1,2,2*%
%TO.N,Net-(Q1-C)*%
X157750000Y-116750000D03*
X164250000Y-116750000D03*
%TD*%
D11*
%TO.P,D2,1,K*%
%TO.N,Net-(D1-K)*%
X190960000Y-75270000D03*
D12*
%TO.P,D2,2,A*%
%TO.N,Net-(D1-A)*%
X193262023Y-74196550D03*
%TD*%
D13*
%TO.P,D1,1,K*%
%TO.N,Net-(D1-K)*%
X140225000Y-85500000D03*
D12*
%TO.P,D1,2,A*%
%TO.N,Net-(D1-A)*%
X142765000Y-85500000D03*
%TD*%
D10*
%TO.P,SW2,1,1*%
%TO.N,Net-(BT1-+)*%
X108687340Y-89956628D03*
X112865459Y-94935917D03*
%TO.P,SW2,2,2*%
%TO.N,Net-(M1-+)*%
X112134540Y-87064084D03*
X116312660Y-92043373D03*
%TD*%
D14*
%TO.P,Q1,1,C*%
%TO.N,Net-(Q1-C)*%
X169330000Y-113270000D03*
D15*
%TO.P,Q1,2,B*%
%TO.N,Net-(Q1-B)*%
X171400000Y-112000000D03*
%TO.P,Q1,3,E*%
%TO.N,Net-(D1-A)*%
X169330000Y-110730000D03*
%TD*%
D10*
%TO.P,SW3,1,1*%
%TO.N,unconnected-(SW3-Pad1)*%
X141750000Y-124000000D03*
X135250000Y-124000000D03*
%TO.P,SW3,2,2*%
%TO.N,unconnected-(SW3-Pad2)*%
X141750000Y-128500000D03*
X135250000Y-128500000D03*
%TD*%
%TO.P,SW4,1,1*%
%TO.N,unconnected-(SW4-Pad1)*%
X155250000Y-127500000D03*
X148750000Y-127500000D03*
%TO.P,SW4,2,2*%
%TO.N,unconnected-(SW4-Pad2)*%
X155250000Y-132000000D03*
X148750000Y-132000000D03*
%TD*%
%TO.P,SW5,1,1*%
%TO.N,unconnected-(SW5-Pad1)*%
X170000000Y-126500000D03*
X163500000Y-126500000D03*
%TO.P,SW5,2,2*%
%TO.N,unconnected-(SW5-Pad2)*%
X170000000Y-131000000D03*
X163500000Y-131000000D03*
%TD*%
D16*
%TO.P,R1,1*%
%TO.N,Net-(BT1--)*%
X170310000Y-103500000D03*
%TO.P,R1,2*%
%TO.N,Net-(D1-K)*%
X162690000Y-103500000D03*
%TD*%
D17*
%TO.P,M1,1,+*%
%TO.N,Net-(M1-+)*%
X140500000Y-110500000D03*
D18*
%TO.P,M1,2,-*%
%TO.N,Net-(D1-K)*%
X140500000Y-113040000D03*
%TD*%
D19*
%TO.P,BT1,1,+*%
%TO.N,Net-(BT1-+)*%
X186485000Y-80500000D03*
X164515000Y-80500000D03*
D20*
%TO.P,BT1,2,-*%
%TO.N,Net-(BT1--)*%
X175500000Y-80500000D03*
%TD*%
D21*
%TO.P,R3,1*%
%TO.N,Net-(BT1-+)*%
X170700000Y-119000000D03*
%TO.P,R3,2*%
%TO.N,Net-(Q1-B)*%
X167300000Y-119000000D03*
%TD*%
D22*
%TO.N,*%
X168000000Y-58500000D03*
%TD*%
D23*
%TO.N,Net-(BT1-+)*%
X129500000Y-99500000D02*
X132500000Y-102500000D01*
X138500000Y-111000000D02*
X138500000Y-114500000D01*
X138000000Y-115000000D02*
X141500000Y-115000000D01*
X137500000Y-110000000D02*
X138500000Y-111000000D01*
X137000000Y-108500000D02*
X137500000Y-108500000D01*
X164250000Y-112550000D02*
X170700000Y-119000000D01*
X164515000Y-80500000D02*
X164515000Y-111985000D01*
X138500000Y-114500000D02*
X138000000Y-115000000D01*
X124432900Y-96500000D02*
X126000000Y-96500000D01*
X164515000Y-78472821D02*
X171688821Y-71299000D01*
X171688821Y-71299000D02*
X180024000Y-71299000D01*
X108687340Y-89956628D02*
X112865459Y-94134747D01*
X112865459Y-94134747D02*
X112865459Y-94935917D01*
X132500000Y-104000000D02*
X137000000Y-108500000D01*
X122564083Y-94935917D02*
X122716450Y-94783550D01*
X186485000Y-77760000D02*
X186485000Y-80500000D01*
X157750000Y-112250000D02*
X164250000Y-112250000D01*
X164515000Y-111985000D02*
X164250000Y-112250000D01*
X126000000Y-96500000D02*
X129000000Y-99500000D01*
X180024000Y-71299000D02*
X186485000Y-77760000D01*
X129000000Y-99500000D02*
X129500000Y-99500000D01*
X137500000Y-108500000D02*
X137500000Y-110000000D01*
X132500000Y-102500000D02*
X132500000Y-104000000D01*
X145250000Y-112250000D02*
X157750000Y-112250000D01*
X141500000Y-115000000D02*
X142000000Y-115500000D01*
X170000000Y-119000000D02*
X170700000Y-119000000D01*
X122716450Y-94783550D02*
X124432900Y-96500000D01*
X164515000Y-80500000D02*
X164515000Y-78472821D01*
X164250000Y-112250000D02*
X164250000Y-112550000D01*
X112865459Y-94935917D02*
X122564083Y-94935917D01*
X142000000Y-115500000D02*
X145250000Y-112250000D01*
%TO.N,Net-(D1-K)*%
X141564000Y-85997471D02*
X141564000Y-85002529D01*
X142267529Y-84299000D02*
X144489000Y-84299000D01*
X162690000Y-78548000D02*
X162690000Y-103500000D01*
X142267529Y-86701000D02*
X141564000Y-85997471D01*
X186588000Y-70898000D02*
X170340000Y-70898000D01*
X147177000Y-78548000D02*
X140225000Y-85500000D01*
X170340000Y-70898000D02*
X162690000Y-78548000D01*
X141564000Y-85002529D02*
X142267529Y-84299000D01*
X162690000Y-78548000D02*
X147177000Y-78548000D01*
X162690000Y-102500000D02*
X162690000Y-103500000D01*
X144489000Y-84299000D02*
X162690000Y-102500000D01*
X190960000Y-75270000D02*
X186588000Y-70898000D01*
X142494529Y-113040000D02*
X156048000Y-99486529D01*
X143262471Y-86701000D02*
X142267529Y-86701000D01*
X156048000Y-99486529D02*
X143262471Y-86701000D01*
X140500000Y-113040000D02*
X142494529Y-113040000D01*
%TO.N,Net-(D1-A)*%
X156449000Y-99652629D02*
X141910629Y-114191000D01*
X133434550Y-102300350D02*
X126600650Y-95466450D01*
X171852206Y-110730000D02*
X173000000Y-111877794D01*
X122865800Y-95500000D02*
X124399350Y-97033550D01*
X122567100Y-93500000D02*
X118336387Y-93500000D01*
X138099000Y-111166100D02*
X138099000Y-114000000D01*
X137599000Y-114500000D02*
X137599000Y-115166100D01*
X173000000Y-111877794D02*
X173000000Y-119320539D01*
X124399350Y-97033550D02*
X125966450Y-97033550D01*
X137099000Y-108901000D02*
X137099000Y-110166100D01*
X139852846Y-117419946D02*
X156580054Y-117419946D01*
X142000000Y-109698000D02*
X140802000Y-108500000D01*
X140023240Y-111889000D02*
X141413000Y-111889000D01*
X171320539Y-121000000D02*
X163912923Y-121000000D01*
X114500000Y-95500000D02*
X122865800Y-95500000D01*
X132099000Y-102666100D02*
X132099000Y-104166100D01*
X124533550Y-95466450D02*
X122567100Y-93500000D01*
X156449000Y-96949000D02*
X156449000Y-99652629D01*
X145000000Y-85500000D02*
X156449000Y-96949000D01*
X112326567Y-96236917D02*
X113763083Y-96236917D01*
X137449650Y-107315450D02*
X136949650Y-107315450D01*
X140023240Y-114191000D02*
X139349000Y-113516760D01*
X136833900Y-108901000D02*
X137099000Y-108901000D01*
X160963923Y-118051000D02*
X157211108Y-118051000D01*
X107386340Y-91296690D02*
X112326567Y-96236917D01*
X173000000Y-119320539D02*
X171320539Y-121000000D01*
X169730000Y-110730000D02*
X171500000Y-110730000D01*
X107386340Y-89417736D02*
X107386340Y-91296690D01*
X137099000Y-110166100D02*
X138099000Y-111166100D01*
X129333900Y-99901000D02*
X132099000Y-102666100D01*
X138500000Y-108365800D02*
X137449650Y-107315450D01*
X138099000Y-114000000D02*
X137599000Y-114500000D01*
X171500000Y-93500000D02*
X171500000Y-110730000D01*
X193262023Y-74196550D02*
X193262023Y-77499977D01*
X112394865Y-85484517D02*
X111319559Y-85484517D01*
X138500000Y-108500000D02*
X138500000Y-108365800D01*
X163912923Y-121000000D02*
X160963923Y-118051000D01*
X139349000Y-113516760D02*
X139349000Y-112563240D01*
X137599000Y-115166100D02*
X139852846Y-117419946D01*
X113763083Y-96236917D02*
X114500000Y-95500000D01*
X141910629Y-114191000D02*
X140023240Y-114191000D01*
X133434550Y-103800350D02*
X133434550Y-102300350D01*
X142765000Y-85500000D02*
X145000000Y-85500000D01*
X139349000Y-112563240D02*
X140023240Y-111889000D01*
X140802000Y-108500000D02*
X138500000Y-108500000D01*
X142000000Y-111302000D02*
X142000000Y-109698000D01*
X126600650Y-95466450D02*
X124533550Y-95466450D01*
X156580054Y-117419946D02*
X157211108Y-118051000D01*
X117668193Y-92831806D02*
X117668193Y-90757845D01*
X128833900Y-99901000D02*
X129333900Y-99901000D01*
X193262023Y-77499977D02*
X177262000Y-93500000D01*
X118336387Y-93500000D02*
X117668193Y-92831806D01*
X141413000Y-111889000D02*
X142000000Y-111302000D01*
X111319559Y-85484517D02*
X107386340Y-89417736D01*
X117668193Y-90757845D02*
X112394865Y-85484517D01*
X171500000Y-110730000D02*
X171852206Y-110730000D01*
X177262000Y-93500000D02*
X171500000Y-93500000D01*
X132099000Y-104166100D02*
X136833900Y-108901000D01*
X125966450Y-97033550D02*
X128833900Y-99901000D01*
X136949650Y-107315450D02*
X133434550Y-103800350D01*
%TO.N,Net-(BT1--)*%
X175500000Y-80500000D02*
X175500000Y-89000000D01*
X175500000Y-80500000D02*
X170310000Y-85690000D01*
X170310000Y-85690000D02*
X170310000Y-103500000D01*
%TO.N,Net-(M1-+)*%
X112134540Y-87064084D02*
X116312660Y-91242204D01*
X136783550Y-107716450D02*
X137283550Y-107716450D01*
X118269287Y-94000000D02*
X116312660Y-92043373D01*
X129567100Y-99000000D02*
X133033550Y-102466450D01*
X116312660Y-91242204D02*
X116312660Y-92043373D01*
X124500000Y-96000000D02*
X126500000Y-96000000D01*
X137901000Y-109716450D02*
X138684550Y-110500000D01*
X137901000Y-108333900D02*
X137901000Y-109716450D01*
X137283550Y-107716450D02*
X137901000Y-108333900D01*
X129500000Y-99000000D02*
X129567100Y-99000000D01*
X133033550Y-103966450D02*
X136783550Y-107716450D01*
X126500000Y-96000000D02*
X129500000Y-99000000D01*
X122500000Y-94000000D02*
X118269287Y-94000000D01*
X122500000Y-94000000D02*
X124500000Y-96000000D01*
X133033550Y-102466450D02*
X133033550Y-103966450D01*
X138684550Y-110500000D02*
X140500000Y-110500000D01*
%TO.N,unconnected-(SW3-Pad1)*%
X135250000Y-124000000D02*
X141750000Y-124000000D01*
%TO.N,unconnected-(SW3-Pad2)*%
X135250000Y-128500000D02*
X141750000Y-128500000D01*
%TO.N,unconnected-(SW4-Pad1)*%
X148750000Y-127500000D02*
X155250000Y-127500000D01*
%TO.N,unconnected-(SW4-Pad2)*%
X148750000Y-132000000D02*
X155250000Y-132000000D01*
%TO.N,unconnected-(SW5-Pad2)*%
X163500000Y-131000000D02*
X170000000Y-131000000D01*
%TO.N,unconnected-(SW5-Pad1)*%
X163500000Y-126500000D02*
X170000000Y-126500000D01*
%TO.N,Net-(Q1-B)*%
X172152000Y-113152000D02*
X172152000Y-119601439D01*
X172152000Y-119601439D02*
X171301439Y-120452000D01*
X171301439Y-120452000D02*
X168752000Y-120452000D01*
X171000000Y-112000000D02*
X172152000Y-113152000D01*
X168752000Y-120452000D02*
X167300000Y-119000000D01*
%TO.N,Net-(Q1-C)*%
X171751000Y-119435339D02*
X171751000Y-115291000D01*
X171135339Y-120051000D02*
X171751000Y-119435339D01*
X164250000Y-116750000D02*
X166963661Y-116750000D01*
X157750000Y-116750000D02*
X164250000Y-116750000D01*
X166963661Y-116750000D02*
X170264661Y-120051000D01*
X171751000Y-115291000D02*
X169730000Y-113270000D01*
X170264661Y-120051000D02*
X171135339Y-120051000D01*
%TD*%
M02*
