M48
; DRILL file {KiCad 9.0.2} date 2025-05-31T16:50:42-0400
; FORMAT={-:-/ absolute / metric / decimal}
; #@! TF.CreationDate,2025-05-31T16:50:42-04:00
; #@! TF.GenerationSoftware,Kicad,Pcbnew,9.0.2
; #@! TF.FileFunction,Plated,1,2,PTH
FMAT,2
METRIC
; #@! TA.AperFunction,Plated,PTH,ComponentDrill
T1C0.750
; #@! TA.AperFunction,Plated,PTH,ComponentDrill
T2C0.800
; #@! TA.AperFunction,Plated,PTH,ComponentDrill
T3C0.900
; #@! TA.AperFunction,Plated,PTH,ComponentDrill
T4C1.000
; #@! TA.AperFunction,Plated,PTH,ComponentDrill
T5C1.100
; #@! TA.AperFunction,Plated,PTH,ViaDrill
T6C5.000
%
G90
G05
T1
X169.73Y-110.73
X169.73Y-113.27
X171.0Y-112.0
T2
X162.69Y-103.5
X167.3Y-119.0
X170.31Y-103.5
X170.7Y-119.0
T3
X140.225Y-85.5
X142.765Y-85.5
X190.96Y-75.27
X193.262Y-74.197
T4
X140.5Y-110.5
X140.5Y-113.04
T5
X108.687Y-89.957
X112.135Y-87.064
X112.865Y-94.936
X116.313Y-92.043
X135.25Y-124.0
X135.25Y-128.5
X141.75Y-124.0
X141.75Y-128.5
X148.75Y-127.5
X148.75Y-132.0
X155.25Y-127.5
X155.25Y-132.0
X157.75Y-112.25
X157.75Y-116.75
X163.5Y-126.5
X163.5Y-131.0
X164.25Y-112.25
X164.25Y-116.75
X170.0Y-126.5
X170.0Y-131.0
T6
X168.0Y-58.5
M30
